<?xml version="1.0" standalone="no"?>
<!DOCTYPE svg PUBLIC "-//W3C//DTD SVG 20010904//EN"
 "http://www.w3.org/TR/2001/REC-SVG-20010904/DTD/svg10.dtd">
<svg version="1.0" xmlns="http://www.w3.org/2000/svg"
 width="901.000000pt" height="901.000000pt" viewBox="0 0 901.000000 901.000000"
 preserveAspectRatio="xMidYMid meet">
<metadata>
Created by potrace 1.16, written by Peter Selinger 2001-2019
</metadata>
<g transform="translate(0.000000,901.000000) scale(0.100000,-0.100000)"
fill="#000000" stroke="none">
<path d="M0 4505 l0 -4505 4505 0 4505 0 0 4505 0 4505 -4505 0 -4505 0 0
-4505z m4790 4339 c395 -19 889 -127 1255 -274 374 -149 664 -306 962 -519
379 -271 646 -526 922 -880 300 -384 512 -771 669 -1221 322 -918 332 -1926
29 -2816 -100 -294 -215 -552 -346 -778 -28 -49 -51 -90 -51 -92 0 -10 -178
-268 -253 -369 -143 -189 -229 -287 -417 -476 -176 -177 -221 -216 -444 -387
-545 -420 -1234 -711 -1941 -821 -257 -40 -352 -46 -705 -45 -370 0 -484 9
-765 60 -396 72 -728 180 -1105 361 -509 244 -1003 620 -1376 1048 -602 692
-956 1494 -1066 2420 -21 176 -17 805 6 970 102 741 347 1381 753 1964 184
264 521 634 753 827 280 233 563 420 870 575 387 194 704 303 1126 388 353 70
662 88 1124 65z"/>
<path d="M4185 8789 c-758 -55 -1496 -315 -2129 -749 -820 -564 -1432 -1424
-1695 -2384 -105 -384 -141 -641 -148 -1069 -7 -412 9 -602 78 -947 140 -702
467 -1373 938 -1925 129 -152 411 -429 549 -539 265 -211 512 -371 787 -508
468 -234 911 -365 1467 -435 165 -20 707 -24 868 -5 472 55 857 154 1255 323
345 146 623 307 925 533 359 269 714 643 965 1016 610 908 849 1960 690 3036
-165 1109 -770 2129 -1661 2795 -480 359 -1003 607 -1589 753 -377 94 -886
135 -1300 105z m679 -279 l29 0 -7 -97 c-13 -179 -32 -383 -37 -387 -2 -3 -33
-2 -68 1 l-63 6 5 36 c3 20 14 130 24 244 l17 209 36 -6 c19 -3 48 -6 64 -6z
m-712 -10 c37 -11 108 -78 108 -104 0 -32 -110 -36 -141 -5 -14 14 -30 19 -52
17 -27 -2 -32 -7 -32 -28 0 -22 8 -27 60 -43 126 -39 145 -48 170 -85 71 -104
-13 -223 -168 -239 -90 -9 -173 42 -192 119 -6 24 -5 25 57 31 38 3 64 2 67
-4 7 -22 46 -49 71 -49 32 0 50 17 50 46 0 31 -18 42 -99 60 -94 21 -132 48
-150 103 -40 126 96 224 251 181z m883 -16 c49 -17 86 -68 92 -127 10 -89 -58
-159 -161 -165 -78 -4 -89 3 -80 56 6 39 9 42 39 42 40 0 68 29 63 67 -2 24
-9 29 -43 37 -22 5 -42 11 -44 12 -1 2 0 25 4 53 l7 51 41 -6 c23 -3 60 -12
82 -20z m-1612 -272 c35 -128 47 -185 42 -207 -15 -61 -83 -125 -132 -125 -14
0 -22 12 -30 41 -9 36 -8 44 8 60 10 10 19 29 19 42 -1 44 -80 302 -96 314
-16 11 -16 13 -1 19 27 10 111 32 127 33 11 1 27 -45 63 -177z m2415 121 l52
-16 0 -166 c1 -91 3 -199 7 -238 8 -103 7 -105 -64 -84 l-58 17 -3 52 c-3 51
-3 52 -44 62 -22 7 -51 16 -65 21 -21 8 -27 4 -51 -36 -17 -27 -33 -43 -42
-40 -8 2 -34 9 -57 15 -48 12 -51 20 -24 58 34 49 213 347 222 369 7 20 12 21
41 12 18 -6 57 -18 86 -26z m-2678 -165 c46 -168 58 -195 95 -204 18 -4 28
-16 35 -43 13 -49 14 -47 -19 -61 -64 -26 -162 19 -189 87 -6 16 -28 87 -48
158 -20 72 -43 141 -51 153 -8 13 -13 25 -11 26 5 3 121 33 134 35 7 0 30 -65
54 -151z m-562 -334 c73 -78 132 -147 132 -153 0 -7 -24 -23 -52 -37 l-53 -24
-35 38 -35 39 -63 -31 c-51 -25 -62 -34 -58 -51 19 -86 21 -80 -36 -107 -59
-29 -68 -28 -68 7 0 25 -76 412 -86 438 -4 12 14 26 73 56 l78 40 36 -37 c19
-20 95 -100 167 -178z m4039 190 l22 -6 -21 -44 c-16 -32 -29 -45 -50 -50 -80
-17 -156 -174 -118 -244 16 -29 65 -35 96 -11 l26 20 60 -30 60 -30 -27 -29
c-43 -45 -90 -63 -146 -57 -27 3 -58 11 -69 17 l-20 11 21 40 c11 23 16 38 11
35 -5 -3 -15 -19 -22 -36 -15 -36 -22 -37 -61 -8 -96 72 -98 219 -4 342 50 65
160 102 242 80z m81 -40 c41 -32 72 -95 72 -149 0 -66 -10 -72 -71 -38 -44 24
-55 35 -57 59 -2 16 -11 37 -20 47 -14 16 -14 21 6 62 12 25 25 45 28 45 4 0
23 -12 42 -26z m-1713 -83 c726 -113 1375 -440 1891 -956 205 -204 309 -330
462 -560 309 -462 489 -976 553 -1575 18 -170 16 -537 -5 -698 -17 -135 -44
-290 -52 -304 -3 -4 -14 1 -25 11 -17 16 -19 23 -9 64 18 81 38 247 51 414 29
381 -40 893 -171 1277 -181 529 -455 964 -852 1352 -373 363 -802 626 -1283
786 -378 125 -669 172 -1075 173 -277 0 -418 -14 -710 -71 -152 -30 -461 -128
-619 -195 -595 -255 -1143 -708 -1485 -1227 -325 -493 -509 -1008 -565 -1576
-29 -289 1 -730 70 -1046 169 -775 627 -1488 1266 -1971 509 -385 1086 -607
1753 -674 91 -9 167 -19 169 -21 2 -2 -3 -4 -12 -4 -10 0 -17 -7 -17 -16 0
-15 -12 -16 -117 -10 -625 37 -1279 284 -1806 682 -460 348 -853 846 -1075
1364 -192 448 -272 815 -288 1320 -12 378 32 701 143 1060 134 433 318 782
598 1135 478 602 1123 1017 1870 1203 305 77 454 92 870 88 278 -3 352 -7 470
-25z m-3160 -407 c16 -17 25 -22 25 -13 1 11 3 11 13 -1 7 -8 21 -15 32 -15
11 0 20 -6 20 -14 0 -8 13 -18 28 -22 31 -8 57 -27 57 -40 0 -16 -34 -9 -60
11 -35 27 -45 25 -69 -16 -13 -22 -25 -32 -33 -28 -8 5 -9 2 -5 -10 7 -19 -31
-86 -49 -86 -7 0 -14 -7 -18 -15 -3 -8 -1 -15 5 -15 6 0 1 -14 -11 -30 -27
-38 -21 -71 16 -95 15 -9 23 -12 20 -6 -5 8 18 11 76 11 68 -1 79 -3 63 -12
-20 -12 -132 -16 -213 -8 -39 4 -46 9 -93 72 -28 37 -48 72 -45 77 4 5 2 11
-3 13 -6 1 -13 23 -16 48 l-6 45 15 -33 c9 -18 25 -47 37 -64 l22 -30 -22 7
-22 7 23 -24 c13 -14 27 -23 31 -20 4 2 17 -7 28 -20 11 -13 18 -17 14 -10 -3
6 -1 12 5 12 18 0 67 44 63 56 -2 6 15 41 37 78 22 37 48 82 57 101 16 33 16
36 -3 50 -10 9 -29 20 -41 25 -13 5 -23 16 -23 25 0 23 18 18 45 -11z m5371
-6 c5 -7 0 -9 -14 -6 -15 4 -19 2 -15 -8 5 -13 -7 -18 -36 -15 -7 2 -10 -3 -6
-9 3 -6 1 -9 -6 -8 -18 4 -20 -40 -2 -46 8 -3 11 -10 8 -16 -3 -5 -2 -10 3
-10 12 0 45 -50 45 -67 0 -7 5 -13 10 -13 5 0 6 -8 3 -17 -4 -10 -4 -14 0 -10
10 10 36 -31 28 -45 -4 -7 -3 -8 5 -4 7 5 17 -6 27 -29 8 -21 18 -35 21 -31 3
3 14 1 24 -5 11 -5 18 -6 17 -2 -3 11 25 53 35 53 5 0 6 -7 3 -16 -3 -9 -2
-12 5 -9 6 4 8 14 4 22 -3 9 2 27 11 40 8 14 22 41 29 61 l14 37 0 -30 c1 -43
-10 -76 -22 -68 -6 3 -7 1 -3 -5 7 -12 -14 -51 -50 -92 -12 -14 -25 -34 -28
-45 -6 -20 -13 -21 -134 -20 -84 0 -134 5 -147 13 -17 11 -10 12 50 10 39 -1
89 -1 111 0 41 2 42 3 40 35 -1 31 -138 277 -154 277 -4 0 -24 -11 -44 -25
-39 -26 -58 -31 -58 -16 0 25 150 114 175 104 9 -3 15 -2 14 3 -4 26 23 35 37
12z m-2470 -439 c17 -19 19 -41 22 -245 l3 -224 370 0 c356 0 370 -1 389 -20
18 -18 20 -33 20 -149 l0 -129 105 -4 c84 -2 108 -7 122 -21 16 -16 18 -46 21
-335 l3 -318 235 -89 c232 -89 284 -116 284 -152 0 -10 -65 -205 -144 -433
l-143 -414 -74 -23 c-40 -12 -75 -20 -77 -18 -2 2 59 186 136 408 78 223 142
412 144 422 2 13 -45 35 -227 105 -187 72 -1254 482 -1317 506 -17 6 -18 -39
-18 -853 l0 -860 39 -12 c50 -15 144 -85 198 -150 26 -30 64 -60 98 -76 78
-38 136 -32 215 23 l59 40 11 -34 c6 -18 8 -39 4 -45 -11 -18 -247 -129 -274
-129 -48 1 -107 38 -208 133 -66 61 -118 102 -147 112 -89 34 -176 -3 -274
-115 -29 -33 -60 -60 -69 -60 -22 0 -122 58 -122 70 0 6 4 10 9 10 6 0 50 38
98 84 92 87 174 146 205 146 17 0 18 38 18 861 0 685 -3 860 -12 856 -7 -3
-258 -100 -558 -216 -884 -343 -965 -375 -972 -380 -3 -3 56 -185 131 -404
l138 -397 -55 -25 c-30 -14 -57 -25 -61 -25 -6 0 -135 365 -269 761 -44 129
-45 137 -30 161 12 18 70 45 244 112 126 49 235 93 242 99 9 7 12 84 12 322
l0 314 26 20 c23 18 41 21 120 21 l94 0 0 124 c0 109 2 126 21 150 l20 26 372
2 372 3 2 225 c3 215 4 226 24 243 19 15 45 17 214 17 182 0 193 -1 211 -21z
m2394 -2476 c7 -27 19 -59 26 -73 14 -29 76 -60 169 -86 40 -11 71 -28 93 -50
32 -32 32 -33 30 -123 -3 -104 2 -112 91 -163 72 -42 154 -120 149 -145 -5
-29 -50 -27 -115 5 -32 17 -78 35 -103 42 -51 14 -69 33 -70 75 0 34 -21 68
-62 103 -21 18 -26 30 -22 46 4 17 -5 35 -37 72 -23 27 -48 54 -54 59 -7 6
-22 24 -33 42 -21 29 -82 62 -82 43 0 -5 9 -12 20 -15 22 -7 84 -91 73 -98 -5
-2 -25 -7 -46 -11 -31 -6 -42 -4 -52 11 -13 17 -15 17 -31 1 -17 -16 -20 -15
-66 28 -55 51 -146 97 -180 92 -21 -4 -20 -5 7 -12 53 -12 110 -46 165 -96 61
-55 77 -61 83 -27 l4 22 8 -22 c6 -19 13 -21 68 -20 l61 2 20 -52 c22 -55 43
-73 32 -27 -5 19 -3 25 6 22 7 -3 14 -13 16 -24 2 -10 20 -33 40 -51 32 -28
37 -38 43 -95 6 -57 4 -65 -17 -88 -13 -14 -43 -31 -67 -38 -38 -12 -52 -11
-103 4 -73 20 -84 29 -84 64 0 41 -80 98 -120 85 -12 -4 -20 -2 -20 5 0 6 -4
8 -10 5 -5 -3 -10 1 -10 9 0 10 -6 13 -17 9 -11 -4 -14 -3 -9 5 4 7 3 12 -3
12 -17 0 -24 -22 -10 -31 9 -6 10 -9 2 -9 -16 0 -28 21 -25 43 4 19 -9 22 -25
6 -7 -7 -12 -6 -17 6 -4 11 -2 14 7 9 7 -5 6 -1 -2 10 -8 10 -23 41 -33 69
-23 66 -47 90 -127 129 -64 31 -70 32 -197 32 -130 1 -130 1 -168 31 l-38 31
94 0 c59 0 113 6 148 17 30 10 68 15 85 12 22 -5 39 0 64 19 47 35 155 70 197
63 18 -3 53 -19 76 -35 65 -45 83 -47 113 -18 19 19 25 35 25 69 0 74 20 74
40 0z m-4875 14 c-9 -44 9 -85 41 -97 23 -9 36 -5 94 30 36 22 78 40 93 40 37
0 168 -49 194 -72 16 -15 30 -19 52 -15 17 4 65 -3 113 -15 61 -15 99 -19 148
-15 l65 6 -38 -32 -39 -32 -126 0 c-126 0 -128 0 -202 -36 -41 -20 -82 -45
-91 -55 -9 -11 -24 -47 -34 -81 -10 -34 -23 -60 -27 -57 -5 4 -9 0 -7 -7 4
-36 -2 -44 -17 -24 -13 17 -16 18 -24 5 -6 -9 -6 -16 0 -18 6 -2 10 -8 10 -13
0 -5 -9 -4 -20 3 -16 10 -24 9 -49 -10 -16 -12 -36 -19 -44 -16 -9 3 -33 -4
-56 -15 -45 -23 -55 -26 -46 -11 3 6 1 10 -6 10 -8 0 -10 -14 -7 -45 7 -55 -8
-71 -87 -91 -62 -17 -105 -9 -157 28 -25 17 -28 26 -28 73 0 69 11 95 49 120
17 11 31 29 31 40 0 11 5 27 10 35 8 13 10 12 11 -5 1 -11 1 -26 0 -34 -4 -28
24 -3 34 31 17 61 32 71 92 64 43 -5 53 -3 53 9 0 8 5 15 10 15 6 0 10 -7 10
-15 0 -28 36 -15 75 26 46 47 130 99 162 99 12 0 25 5 28 10 10 16 -19 12 -78
-10 -34 -13 -74 -40 -107 -71 -47 -45 -55 -49 -65 -35 -15 20 -25 20 -39 0 -9
-12 -21 -14 -59 -7 l-47 8 30 44 c16 25 41 51 55 59 31 16 28 26 -3 15 -26
-10 -178 -174 -187 -202 -3 -11 -4 -25 0 -31 3 -5 -8 -22 -26 -37 -39 -35 -59
-73 -59 -111 0 -36 -11 -46 -76 -65 -28 -8 -74 -27 -102 -41 -67 -34 -102 -35
-102 -2 0 37 44 81 137 139 51 31 89 61 94 75 5 13 9 62 8 108 -2 114 11 129
143 165 99 28 145 59 158 110 19 70 29 89 45 89 13 0 15 -7 10 -33z m1385
-111 c0 -30 4 -36 34 -46 18 -6 43 -21 54 -33 23 -25 52 -106 52 -148 0 -14
11 -48 25 -74 14 -26 24 -49 22 -51 -11 -11 -77 23 -108 56 -38 42 -74 54
-181 65 -123 12 -204 -34 -236 -135 l-17 -55 -80 0 c-77 -1 -133 -18 -150 -45
-3 -6 -30 -25 -58 -44 -60 -38 -92 -72 -99 -103 -7 -27 24 -79 51 -88 24 -7
28 -33 6 -41 -8 -3 -37 2 -65 11 -48 16 -52 16 -71 -1 -10 -9 -19 -29 -19 -43
l-1 -26 -19 24 c-21 24 -25 71 -10 106 7 17 9 15 9 -12 1 -25 5 -31 16 -27 8
4 15 14 15 24 0 10 -7 23 -15 30 -22 18 -18 52 10 96 l26 39 -35 -37 c-26 -28
-38 -51 -47 -98 -6 -34 -18 -64 -25 -67 -25 -9 -53 18 -69 67 -21 62 -14 87
10 40 22 -44 22 -43 35 -35 7 4 2 22 -16 54 l-26 48 23 52 c12 28 36 63 53 76
17 14 26 25 19 25 -19 0 -84 -69 -99 -106 -8 -18 -14 -44 -14 -56 0 -15 -3
-19 -8 -11 -6 9 -18 3 -43 -24 -20 -21 -27 -33 -16 -30 20 7 47 -1 47 -14 0
-5 -6 -9 -13 -9 -8 0 -22 -10 -33 -21 -47 -53 -102 -57 -221 -16 -62 20 -63
21 -63 57 0 52 44 95 107 104 45 6 103 45 103 70 0 5 -13 -3 -29 -18 -23 -22
-43 -30 -92 -35 -52 -7 -66 -12 -85 -37 -22 -27 -24 -28 -41 -12 -16 17 -16
19 6 42 14 14 57 36 100 51 121 40 136 52 163 137 14 46 28 73 38 74 32 2 39
5 54 20 9 8 16 26 16 39 0 54 113 90 245 78 96 -8 115 -2 180 57 91 83 122 92
203 59 26 -11 36 -11 52 -1 21 13 69 6 161 -24 44 -15 49 -14 86 4 22 12 45
28 52 36 21 25 31 19 31 -18z m2091 17 c8 -9 33 -24 55 -35 40 -17 43 -17 96
1 75 26 134 35 143 22 9 -15 45 -13 79 4 54 28 82 17 203 -82 l53 -42 127 2
c118 1 132 0 178 -23 42 -21 50 -29 50 -54 1 -33 39 -69 64 -61 13 4 20 -9 35
-60 21 -74 50 -108 109 -129 23 -8 63 -21 88 -30 25 -9 57 -28 69 -41 22 -24
23 -26 7 -42 -16 -16 -19 -15 -44 14 -24 27 -36 32 -86 36 -46 3 -63 9 -87 32
-17 16 -30 24 -30 19 0 -30 77 -74 129 -74 17 0 36 -10 49 -25 12 -14 17 -25
11 -25 -16 0 -38 -31 -39 -52 0 -27 16 -21 38 13 l19 31 0 -40 0 -39 -64 -23
c-35 -12 -85 -23 -112 -23 -42 -1 -56 5 -99 38 -50 37 -59 62 -21 52 25 -7 24
2 -7 37 -19 21 -28 26 -33 17 -5 -8 -10 3 -13 27 -7 48 -48 112 -88 135 -36
22 -41 6 -5 -17 14 -9 37 -41 52 -70 25 -51 25 -56 11 -88 -24 -51 -31 -78
-19 -78 5 0 17 10 25 22 22 31 30 16 14 -28 -14 -40 -49 -69 -72 -61 -8 3 -17
28 -21 59 -8 59 -18 82 -48 116 -31 33 -43 27 -14 -8 30 -35 55 -159 41 -199
-11 -30 -34 -40 -34 -14 0 11 -6 28 -14 38 -13 18 -15 18 -75 0 -84 -25 -98
-11 -42 43 54 51 55 81 3 131 -21 20 -60 50 -87 66 -107 67 -117 70 -186 68
-75 -3 -79 0 -98 66 -28 97 -119 138 -266 122 -91 -11 -124 -25 -151 -66 -16
-24 -93 -60 -113 -54 -7 3 0 19 15 40 16 23 33 70 45 125 20 93 42 127 87 139
41 10 52 23 45 56 -6 32 7 38 28 12z m-2077 -287 c17 -8 42 -26 56 -41 36 -39
65 -51 153 -65 60 -9 94 -9 149 0 92 16 101 8 102 -89 1 -39 6 -74 11 -80 20
-19 233 -120 320 -151 180 -65 205 -75 202 -85 -7 -20 -61 -16 -143 10 -46 14
-107 27 -136 28 l-52 2 -8 -50 c-4 -27 -12 -63 -17 -80 -7 -24 -9 -14 -10 51
l-1 82 -44 6 c-41 7 -45 10 -58 49 -16 53 -42 61 -44 15 -2 -39 -39 -247 -54
-300 -15 -54 -54 -95 -124 -130 -33 -17 -80 -47 -102 -67 -65 -57 -218 -137
-334 -174 -134 -44 -163 -51 -155 -37 3 5 15 10 27 10 34 0 199 70 258 109 51
34 87 77 150 182 18 29 53 60 120 104 52 35 101 74 109 86 18 30 66 146 75
182 6 26 5 27 -13 18 -11 -6 -57 -11 -103 -11 -74 0 -88 3 -118 25 -40 30 -47
30 -117 8 -41 -13 -56 -14 -65 -5 -9 9 -7 17 9 34 33 38 38 55 7 26 -16 -15
-51 -32 -79 -38 -95 -23 -125 -98 -65 -167 37 -41 38 -62 5 -102 -24 -28 -110
-70 -121 -58 -3 2 9 21 25 40 35 40 36 46 16 107 l-15 45 5 -57 c3 -39 1 -61
-8 -70 -7 -7 -29 -38 -48 -68 -42 -65 -98 -107 -156 -116 -66 -10 -168 4 -205
30 -30 20 -33 27 -36 78 -2 34 -9 61 -17 68 -18 15 -19 32 -3 48 19 19 48 123
48 174 0 42 3 48 35 68 19 12 45 36 57 53 l22 32 -41 -36 c-22 -21 -50 -40
-62 -44 -23 -7 -36 -42 -29 -80 3 -14 3 -25 0 -25 -3 0 -27 14 -54 31 -87 56
-87 91 0 146 32 20 71 49 88 65 37 34 91 49 151 41 55 -7 88 13 97 61 9 46 50
94 101 118 33 16 54 18 124 13 47 -4 99 -12 115 -19z m2264 8 c54 -22 89 -60
108 -116 8 -26 23 -52 33 -57 9 -5 49 -9 88 -8 61 2 76 -1 100 -20 15 -13 60
-44 100 -70 76 -51 98 -87 72 -119 -14 -17 -94 -74 -103 -74 -3 0 -5 18 -4 40
1 40 -14 70 -38 70 -7 0 -29 16 -49 37 -19 20 -38 34 -41 31 -3 -3 22 -30 55
-59 52 -45 59 -56 54 -79 -6 -32 30 -168 51 -188 13 -13 12 -18 -7 -44 -13
-17 -22 -45 -22 -71 -1 -23 -3 -47 -3 -53 -5 -33 -149 -63 -237 -49 -54 8
-124 64 -155 125 -10 19 -27 43 -38 53 -17 16 -20 28 -17 75 3 43 2 50 -4 27
-17 -58 -12 -96 14 -127 14 -17 24 -32 22 -34 -7 -7 -90 26 -108 42 -9 8 -23
29 -29 44 -11 27 -9 33 15 62 39 46 48 75 34 115 -12 38 -28 49 -98 64 -34 7
-57 19 -71 36 -14 18 -20 21 -20 10 0 -9 12 -25 27 -37 23 -18 25 -23 13 -31
-16 -10 -26 -9 -98 12 -40 11 -46 10 -75 -12 -29 -21 -42 -24 -127 -24 -52 0
-103 4 -112 8 -15 8 -15 1 6 -60 46 -135 67 -163 171 -228 82 -51 112 -81 142
-140 39 -75 63 -104 123 -145 52 -35 231 -110 265 -110 8 0 15 -4 15 -9 0 -9
-124 24 -210 55 -64 23 -217 111 -270 155 -25 20 -65 47 -90 59 -75 37 -102
61 -122 108 -21 46 -80 341 -71 355 2 4 0 7 -5 7 -14 0 -33 -25 -41 -57 -6
-23 -16 -30 -52 -39 l-44 -11 0 -76 c0 -42 -3 -73 -6 -69 -10 12 -29 88 -29
116 0 15 -7 29 -16 33 -30 11 -166 -26 -253 -69 -47 -24 -104 -48 -126 -53
-50 -14 -54 -34 -26 -147 12 -45 19 -83 17 -85 -5 -5 -56 154 -56 177 0 11 -4
20 -10 20 -41 0 38 -213 111 -302 46 -55 29 -48 -28 12 -37 39 -123 201 -123
231 0 10 -3 19 -6 19 -4 0 -46 -37 -93 -83 -94 -90 -207 -169 -316 -222 -85
-41 -115 -50 -115 -36 0 6 4 11 10 11 5 0 47 18 92 39 96 45 163 99 149 120
-7 10 -20 5 -65 -28 -30 -23 -60 -50 -66 -62 -8 -14 -17 -18 -31 -14 -10 4
-19 3 -19 -2 0 -5 -14 -17 -30 -27 -20 -11 -6 7 39 52 37 39 82 94 99 124 32
53 45 55 17 2 -8 -16 -15 -35 -15 -43 0 -18 46 10 83 52 26 31 27 31 27 7 0
-13 -7 -32 -17 -42 -33 -36 -3 -30 44 10 69 58 125 118 180 192 46 62 51 65
100 71 29 4 75 20 105 37 29 17 85 40 123 52 155 49 395 164 414 198 6 10 4
30 -4 53 -8 23 -10 39 -4 41 15 5 16 63 2 61 -8 -2 -10 4 -6 14 5 13 2 15 -20
9 -24 -6 -27 -3 -27 19 0 33 15 32 52 -6 19 -19 44 -32 63 -34 18 -1 54 -6 81
-9 29 -4 83 -1 132 8 76 13 88 19 132 60 30 28 60 47 81 50 112 19 163 19 207
0z m1892 -489 c19 -23 7 -77 -65 -290 -86 -258 -108 -305 -140 -305 -14 0 -25
2 -25 4 0 2 11 29 25 61 46 103 141 395 169 518 7 30 18 34 36 12z m-4861
-321 c11 -42 -3 -113 -35 -176 -12 -22 -11 -27 1 -32 8 -3 17 0 21 6 4 7 3 8
-4 4 -7 -4 -12 -2 -12 3 0 6 7 11 15 11 20 0 35 32 57 115 l18 70 -5 -55 c-7
-69 -22 -115 -52 -162 -29 -48 -29 -52 5 -34 32 17 125 111 142 144 6 13 14
22 16 19 3 -2 -9 -29 -26 -58 -18 -30 -26 -48 -19 -41 7 6 19 12 27 12 20 0
-65 -68 -118 -95 -25 -12 -66 -34 -92 -49 -32 -18 -54 -25 -71 -21 -14 4 -41
2 -61 -3 -52 -15 -45 1 7 16 71 21 110 68 135 160 24 85 27 106 14 98 -4 -2
-5 25 0 62 4 37 8 92 9 122 l2 55 7 -65 c4 -36 13 -83 19 -106z m2218 29 c14
-29 56 -87 93 -130 38 -43 67 -79 65 -81 -2 -2 -13 6 -24 17 -12 12 -27 21
-33 21 -9 0 -10 -3 -2 -8 6 -4 19 -22 28 -39 9 -18 31 -49 48 -69 l33 -37 -33
17 c-18 9 -50 32 -70 50 -20 18 -65 54 -99 80 -66 51 -97 100 -108 171 -6 37
-5 39 9 21 8 -10 17 -22 18 -25 4 -9 73 -61 80 -61 3 0 -7 33 -23 73 -15 39
-28 79 -28 87 0 8 5 4 10 -10 6 -14 22 -48 36 -77z m-2530 72 c28 -8 57 -22
64 -31 7 -9 16 -50 20 -93 l6 -76 3 100 c2 91 3 96 12 55 11 -53 4 -161 -14
-222 -7 -26 -31 -61 -58 -89 -70 -73 -139 -91 -360 -95 -193 -4 -304 11 -372
49 -36 21 -37 21 -120 4 -93 -19 -148 -22 -148 -7 0 6 16 10 35 10 44 0 142
37 154 58 8 14 13 13 45 -12 20 -15 36 -23 36 -19 0 4 4 2 8 -5 5 -7 35 -22
68 -34 47 -18 86 -23 199 -26 296 -8 458 51 497 180 12 40 12 41 -22 70 -42
36 -112 68 -148 68 -35 0 -62 27 -62 63 0 65 54 83 157 52z m2568 -32 c20 -53
25 -58 75 -93 19 -13 52 -39 73 -57 26 -23 47 -33 70 -33 45 0 145 -67 217
-144 30 -33 76 -81 102 -108 27 -26 45 -48 40 -48 -7 1 -71 19 -122 36 -14 4
-65 28 -115 53 -95 49 -100 54 -179 191 -20 35 -43 61 -64 72 -18 9 -43 24
-54 35 -28 24 -81 143 -64 143 2 0 11 -21 21 -47z m-1060 -18 c-18 -46 -57
-86 -112 -116 -21 -11 -41 -38 -63 -83 -18 -36 -39 -66 -46 -66 -8 0 -14 -5
-14 -11 0 -7 7 -8 18 -3 9 4 33 7 52 6 31 -1 168 48 198 71 7 6 12 6 12 0 0
-5 -34 -27 -75 -48 -42 -21 -73 -40 -71 -43 3 -2 28 7 57 22 29 14 55 24 57
21 3 -3 -37 -25 -89 -49 -101 -47 -226 -80 -280 -73 l-34 4 36 1 c31 2 119 30
97 32 -4 0 -62 -11 -129 -25 -68 -14 -125 -23 -127 -20 -12 11 22 33 52 33 48
0 220 53 204 64 -9 5 -10 8 -1 8 14 0 78 89 70 97 -18 17 -170 -69 -239 -135
-28 -26 -38 -31 -38 -19 0 9 30 40 68 70 107 85 127 97 168 97 29 0 49 10 93
45 31 24 68 53 83 65 14 11 34 41 44 65 9 25 19 43 22 41 2 -3 -4 -25 -13 -51z
m719 -94 c38 -30 77 -74 112 -128 30 -44 69 -90 86 -102 18 -11 29 -21 25 -21
-19 0 -121 74 -186 135 -77 73 -117 142 -126 215 l-5 45 17 -49 c14 -40 30
-59 77 -95z m1770 -117 c19 -59 41 -81 111 -118 110 -56 420 -76 556 -36 37
11 75 28 84 36 8 8 15 12 15 9 0 -4 16 5 35 19 34 26 35 26 54 7 23 -23 110
-51 158 -51 18 0 33 -4 33 -10 0 -15 -65 -12 -158 7 -82 17 -83 17 -125 -5
-63 -33 -176 -51 -335 -51 -251 -1 -377 43 -435 153 -18 35 -22 59 -23 171
l-2 130 7 -105 c5 -58 16 -129 25 -156z m-3142 183 c-27 -57 -154 -197 -177
-197 -7 0 -20 -10 -31 -21 l-19 -22 47 6 c26 3 57 11 70 18 61 32 177 115 207
147 32 36 32 36 12 5 -45 -67 -234 -198 -349 -242 -81 -31 -186 -62 -207 -60
-5 0 40 17 100 38 98 33 175 66 175 74 0 2 -30 0 -66 -4 -77 -8 -213 -70 -221
-100 -4 -14 -14 -19 -42 -19 l-36 1 35 18 c19 9 61 36 94 59 55 39 85 52 148
66 17 4 37 21 52 44 23 34 228 251 233 247 2 -1 -9 -27 -25 -58z m2472 -83
c23 -22 62 -65 88 -96 37 -44 55 -57 85 -62 21 -3 67 -25 102 -48 36 -24 83
-53 105 -65 75 -40 -50 -21 -218 34 -86 28 -129 49 -210 104 -99 67 -186 143
-186 162 0 5 18 -7 40 -27 68 -61 181 -128 240 -142 63 -14 74 -12 33 10 -34
18 -169 153 -161 161 3 4 15 -7 27 -24 12 -16 44 -49 73 -73 l52 -43 -20 34
c-22 38 -122 133 -133 126 -4 -2 -15 12 -25 32 l-17 36 42 -39 c23 -21 60 -57
83 -80z m391 2 c15 -94 38 -144 74 -162 13 -7 39 -28 59 -47 43 -40 70 -55
132 -74 l45 -13 -40 5 c-22 3 -55 8 -74 11 -24 5 -32 3 -27 -5 5 -7 1 -9 -8
-5 -9 3 -13 11 -9 17 4 7 0 8 -12 3 -12 -4 -45 10 -104 45 -96 58 -139 89
-123 89 7 0 -5 29 -24 65 -20 36 -34 68 -31 71 2 3 18 -19 35 -48 40 -71 107
-139 147 -152 19 -5 17 2 -18 73 -29 62 -39 96 -44 153 -8 97 4 83 22 -26z
m1245 -281 c0 -13 -115 -232 -166 -316 -161 -267 -309 -455 -534 -680 -175
-175 -286 -269 -465 -391 -222 -152 -391 -247 -600 -336 -371 -157 -724 -243
-1105 -268 -97 -6 -104 -6 -91 10 12 14 10 16 -19 16 -53 0 -31 7 45 14 467
44 747 111 1139 273 192 79 390 187 589 322 435 294 864 780 1094 1236 48 94
71 125 94 125 10 0 19 -2 19 -5z m-3046 -430 c27 -25 35 -75 16 -105 -13 -21
-45 -1 -46 29 -2 36 -27 55 -60 44 -57 -19 -58 -63 -1 -86 47 -20 77 -62 77
-106 0 -49 -18 -79 -67 -117 -37 -28 -48 -31 -84 -27 -32 5 -44 2 -51 -11 -15
-27 -61 -20 -86 14 -12 16 -22 38 -22 49 0 23 25 57 53 72 20 11 57 -5 57 -25
0 -8 15 -13 40 -14 l40 -2 0 66 c0 60 -3 68 -30 94 -41 38 -39 73 4 116 30 30
41 34 84 34 38 0 55 -5 76 -25z m148 -270 c22 -25 22 -53 2 -93 -12 -25 -22
-32 -45 -32 -17 0 -32 6 -35 15 -4 10 -20 15 -45 15 l-39 0 0 -167 c1 -184 18
-352 40 -378 11 -13 25 -15 69 -11 43 4 64 1 91 -12 19 -10 34 -23 33 -30 -2
-6 3 -9 11 -6 8 3 18 -7 26 -25 20 -49 -2 -67 -154 -122 -83 -30 -135 -71
-172 -135 -10 -17 -13 -15 -32 23 -25 49 -58 76 -115 97 -23 9 -68 25 -99 36
-64 23 -146 92 -185 153 l-25 39 -18 -30 c-26 -43 -37 -46 -56 -17 -36 55 -43
265 -10 310 12 16 17 14 67 -26 55 -45 110 -81 163 -109 44 -22 42 -35 -6 -55
l-43 -17 38 -22 c49 -30 160 -60 191 -52 35 9 46 65 52 271 3 99 7 190 10 202
2 13 24 33 53 50 27 15 64 46 82 68 19 23 37 42 41 43 4 1 19 14 32 27 28 27
49 25 78 -10z m-2930 -222 c21 -20 38 -41 38 -46 0 -5 -22 -38 -50 -73 -27
-35 -50 -65 -50 -67 0 -2 35 14 79 36 l78 40 36 -39 c20 -21 37 -42 37 -45 0
-12 -208 -189 -222 -189 -8 0 -21 11 -28 25 -16 30 -8 40 87 118 35 28 61 52
59 55 -3 2 -31 -12 -63 -31 -32 -19 -77 -44 -99 -55 l-41 -21 -23 24 -23 25
62 76 c35 41 61 77 59 79 -2 2 -33 -23 -70 -56 -70 -62 -86 -66 -108 -24 -12
23 -10 27 31 63 82 73 164 141 169 142 2 0 21 -17 42 -37z m5612 -22 c17 -6
16 -9 -8 -39 -16 -18 -33 -29 -41 -25 -10 3 -15 -2 -15 -16 0 -22 14 -28 25
-11 12 19 82 49 102 44 12 -3 29 -21 39 -39 17 -32 17 -33 -9 -77 -14 -25 -40
-52 -58 -60 -33 -17 -69 -13 -69 6 0 24 32 56 56 56 17 0 24 5 24 20 0 26 -8
25 -52 -5 -52 -35 -93 -33 -113 6 -15 28 -15 33 4 72 19 39 62 77 86 76 6 0
18 -4 29 -8z m-2374 -126 c18 -21 25 -170 11 -237 -7 -32 -20 -67 -30 -79
l-18 -22 -25 37 -26 38 -23 -41 -23 -41 -30 32 c-17 17 -44 39 -59 48 l-28 17
33 21 33 21 -38 16 c-20 8 -37 21 -37 28 0 6 32 29 70 51 38 21 90 58 117 82
54 49 56 49 73 29z m2150 -30 c9 -11 16 -12 31 -2 25 16 59 -14 41 -36 -17
-20 55 -89 84 -81 12 3 26 -1 34 -11 11 -13 9 -20 -15 -45 -16 -17 -39 -30
-51 -30 -12 0 -44 20 -72 45 -27 24 -52 42 -55 39 -3 -3 -15 -3 -26 1 -15 4
-21 15 -21 36 0 16 -4 29 -10 29 -15 0 -12 18 8 45 20 28 35 31 52 10z m-5173
-152 c31 -21 53 -58 53 -90 0 -22 -16 -44 -65 -93 l-65 -64 -28 27 c-25 26
-26 29 -9 38 9 6 17 15 17 21 0 6 -8 4 -19 -6 -22 -20 -44 -13 -65 19 -26 39
-20 80 15 109 17 14 35 26 40 26 5 0 26 -16 48 -35 21 -19 44 -35 50 -35 20 0
12 29 -11 41 -42 21 -70 52 -56 61 16 10 66 0 95 -19z m5179 -55 c35 -33 64
-67 64 -74 0 -7 -12 -22 -27 -34 l-27 -21 -52 55 c-52 57 -77 68 -88 40 -4
-10 13 -35 51 -75 l56 -59 -23 -25 c-13 -14 -28 -24 -34 -24 -6 1 -44 37 -85
80 l-75 79 24 25 c13 14 29 25 37 25 7 0 13 6 13 13 0 16 60 57 83 57 10 0 48
-28 83 -62z m-5026 -95 c21 -18 27 -30 20 -38 -7 -8 -2 -12 20 -12 43 0 48
-10 19 -39 -22 -22 -29 -24 -54 -14 -26 10 -31 8 -76 -41 l-48 -52 -30 26 -30
25 72 86 c39 47 73 85 75 86 1 0 16 -12 32 -27z m4781 -35 c9 -7 37 -39 64
-71 l48 -58 -23 -24 c-13 -14 -29 -25 -37 -25 -7 0 -13 -6 -13 -14 0 -20 -49
-49 -82 -49 -35 0 -78 39 -78 70 0 14 16 39 40 62 26 25 37 42 29 46 -6 4 -29
-11 -53 -34 -44 -43 -56 -44 -56 -3 0 36 81 112 118 112 16 0 35 -6 43 -12z
m-4646 -72 c31 -29 33 -23 -50 -129 -54 -71 -61 -76 -79 -63 -45 29 -43 39 30
129 38 47 70 86 71 87 1 0 14 -11 28 -24z m4381 -41 c4 -10 14 -13 29 -9 31 8
64 -35 40 -52 -12 -9 -10 -17 16 -53 18 -24 38 -41 48 -39 21 3 41 -10 41 -27
0 -19 -66 -58 -88 -51 -10 3 -35 28 -55 56 -21 29 -45 50 -56 50 -24 0 -43 23
-35 44 3 9 0 23 -7 32 -12 14 -9 20 16 40 35 28 44 29 51 9z m-4278 -45 c12
-12 22 -25 22 -30 0 -6 9 -10 20 -10 26 0 70 -43 70 -68 0 -16 -90 -155 -109
-166 -4 -3 -20 5 -36 18 l-28 23 41 58 c46 64 53 95 23 95 -12 0 -34 -21 -57
-52 -21 -29 -41 -57 -45 -62 -13 -15 -62 23 -56 44 7 27 110 169 123 170 5 0
20 -9 32 -20z m4207 -116 c42 -64 79 -122 81 -129 3 -7 -8 -22 -25 -34 l-30
-22 -86 128 -85 128 27 22 c16 13 31 23 35 23 4 0 42 -52 83 -116z m-89 -120
l58 -96 -25 -19 c-13 -10 -32 -19 -43 -19 -10 0 -27 -11 -38 -25 -23 -30 -68
-33 -90 -7 -20 21 -100 153 -96 156 30 22 55 36 63 36 6 0 25 -27 44 -61 34
-62 55 -79 73 -61 7 7 0 30 -26 75 -20 36 -36 69 -36 74 0 6 46 41 57 43 1 0
28 -43 59 -96z m-3855 63 c49 -33 64 -70 50 -118 -6 -21 -16 -41 -21 -44 -5
-3 -34 10 -64 30 -30 19 -58 35 -61 35 -4 0 -5 -12 -3 -27 2 -22 8 -28 28 -28
15 0 37 -8 50 -17 25 -17 25 -18 6 -33 -37 -29 -107 -10 -140 37 -26 36 -20
101 11 138 45 54 91 63 144 27z m355 -118 c25 -24 34 -41 34 -66 0 -18 -2 -33
-5 -33 -14 0 -65 31 -65 40 0 12 -29 40 -41 40 -5 0 -12 -7 -15 -15 -4 -10 11
-34 40 -65 57 -61 61 -97 16 -142 -27 -26 -35 -29 -67 -23 -50 9 -110 41 -123
64 -12 23 -14 91 -2 91 21 0 71 -42 74 -62 2 -17 11 -24 31 -26 42 -5 36 35
-13 82 -47 44 -53 87 -18 131 19 25 26 27 70 23 39 -4 57 -12 84 -39z m3238
-5 c39 -15 -5 -54 -59 -54 -14 0 -25 -5 -25 -11 0 -8 17 -10 54 -5 45 5 58 3
80 -15 28 -22 34 -56 16 -90 -13 -22 -80 -59 -110 -59 -29 0 -60 18 -60 34 0
17 46 35 80 33 16 -1 25 3 25 13 0 16 -9 17 -65 6 -63 -13 -108 41 -79 95 23
43 97 70 143 53z m-176 -165 c17 -37 35 -80 38 -95 5 -26 2 -31 -26 -41 l-32
-12 -34 75 c-21 46 -39 74 -49 74 -28 0 -28 -29 -1 -91 33 -77 33 -85 -5 -98
l-30 -10 -38 83 c-57 123 -57 122 -20 140 17 9 35 13 40 10 5 -3 21 4 36 16
17 13 38 20 57 18 27 -3 35 -11 64 -69z m-2954 46 c20 -8 36 -18 36 -22 0 -4
-12 -38 -26 -76 -18 -48 -23 -72 -16 -79 19 -19 37 -1 66 71 23 57 32 71 45
65 9 -3 24 -9 34 -11 9 -3 17 -11 17 -18 0 -13 -73 -191 -82 -201 -7 -7 -50
14 -60 30 -4 6 -21 11 -38 12 -47 2 -73 31 -67 74 4 28 48 169 53 170 1 0 18
-7 38 -15z m2686 -102 c52 -47 58 -126 13 -175 -20 -22 -43 -23 -43 -3 0 8 -4
15 -9 15 -5 0 -7 -9 -4 -20 7 -28 -37 -37 -75 -15 -66 39 -84 136 -35 187 32
34 43 35 44 6 1 -22 2 -19 14 20 8 22 63 13 95 -15z m-2422 2 c12 -3 22 -11
22 -16 0 -6 8 -8 18 -5 30 9 44 -7 33 -37 -7 -19 -18 -27 -34 -27 -31 0 -53
-26 -73 -83 -16 -48 -22 -51 -61 -41 -29 8 -29 21 3 119 14 44 27 86 30 93 2
7 12 11 21 8 10 -2 28 -7 41 -11z m2048 -31 c4 -14 2 -30 -5 -37 -28 -28 -7
-117 40 -159 16 -15 29 -37 29 -49 0 -20 -4 -21 -41 -16 -73 10 -119 74 -119
164 0 85 79 165 96 97z m-1873 -21 c4 -2 7 -33 7 -69 0 -35 3 -64 8 -64 4 0
20 25 37 55 31 59 35 61 77 42 l27 -12 -57 -97 c-59 -102 -66 -106 -120 -87
-35 12 -38 24 -45 172 l-4 78 31 -7 c17 -3 34 -8 39 -11z m1585 -39 c29 -19
30 -70 1 -100 -12 -12 -18 -28 -14 -34 5 -8 10 -7 18 4 7 8 25 18 41 22 l29 7
-6 -48 c-6 -42 -4 -52 15 -72 27 -29 19 -37 -40 -38 -26 -1 -56 -6 -67 -12
-30 -16 -101 -10 -125 12 -24 22 -27 81 -5 112 13 19 13 25 -3 52 -15 28 -16
33 -2 58 31 57 102 73 158 37z m-1257 -39 c34 -18 49 -50 49 -102 l0 -35 -47
7 c-27 3 -59 9 -71 12 -20 5 -23 2 -20 -18 3 -23 6 -24 61 -21 60 4 63 2 47
-28 -25 -46 -131 -42 -170 8 -36 44 -18 141 31 176 30 20 81 21 120 1z m147
-21 c28 -6 31 -11 37 -55 4 -27 10 -49 14 -49 4 0 13 19 22 43 13 39 17 42 47
40 19 0 35 -3 38 -5 4 -4 -23 -65 -98 -225 -21 -45 -68 -71 -108 -58 -29 9
-23 49 7 53 15 2 25 13 29 28 5 20 -11 125 -33 212 -6 24 -2 25 45 16z m266
-91 c-19 -14 -24 -95 -5 -101 6 -2 11 -17 11 -33 0 -48 -45 -37 -84 21 -37 56
-6 152 56 168 30 8 33 7 36 -17 2 -15 -3 -30 -14 -38z m118 6 c21 -40 23 -74
5 -109 -16 -31 -74 -71 -93 -63 -20 8 -17 37 6 58 25 23 28 100 5 109 -15 5
-21 47 -9 59 14 14 70 -21 86 -54z m400 44 c37 -44 35 -47 -31 -40 -78 9 -79
-10 -2 -31 58 -17 78 -42 67 -86 -19 -74 -195 -73 -196 2 0 15 66 17 75 2 10
-15 45 -12 45 5 0 9 -14 17 -37 21 -60 10 -83 29 -83 69 0 47 37 75 100 75 32
0 52 -5 62 -17z m-252 -9 c0 -14 2 -14 16 1 16 16 49 18 46 3 -1 -5 -2 -19 -2
-33 0 -14 -6 -25 -12 -25 -32 -1 -43 -21 -48 -87 l-5 -68 -37 -3 -37 -3 -3
111 c-2 62 -1 114 1 116 2 2 22 4 43 4 28 0 38 -4 38 -16z"/>
<path d="M4430 6755 l0 -175 100 0 100 0 0 175 0 175 -100 0 -100 0 0 -175z"/>
<path d="M3650 6365 l0 -85 885 0 885 0 0 85 0 85 -885 0 -885 0 0 -85z"/>
<path d="M3400 5896 l0 -244 178 69 c97 38 352 138 565 221 l388 151 552 -213
c304 -117 558 -215 565 -217 9 -4 12 47 12 236 l0 241 -1130 0 -1130 0 0 -244z"/>
<path d="M7040 4213 c1 -10 62 -49 89 -58 29 -9 26 -25 -4 -25 -55 0 -129 23
-152 48 -30 32 -40 23 -12 -12 31 -40 53 -48 163 -56 122 -10 132 -14 148 -51
7 -16 19 -29 25 -29 7 0 13 -4 13 -10 0 -13 -13 -13 -27 1 -8 8 -21 6 -47 -6
-22 -11 -46 -15 -63 -11 -27 6 -27 6 -9 -9 24 -18 50 -19 76 -3 14 9 29 10 60
1 56 -14 63 5 18 50 -18 18 -41 43 -50 55 -10 12 -28 22 -40 22 -12 0 -31 9
-42 19 -19 18 -129 81 -141 81 -3 0 -5 -3 -5 -7z"/>
<path d="M2249 4187 c-30 -18 -63 -40 -73 -49 -10 -10 -28 -18 -41 -18 -15 0
-31 -10 -42 -26 -10 -15 -34 -41 -53 -60 -43 -41 -32 -62 21 -40 29 12 38 12
59 0 32 -17 65 -18 79 0 9 11 6 12 -15 8 -14 -2 -36 1 -49 8 -14 7 -37 10 -55
6 l-32 -6 21 23 c11 12 28 32 38 44 16 20 32 24 124 32 110 9 160 26 179 60
16 31 12 36 -12 14 -35 -32 -59 -41 -126 -49 -44 -4 -62 -3 -62 5 0 6 5 11 11
11 16 0 99 53 99 63 0 12 -12 7 -71 -26z"/>
<path d="M5390 3278 c0 -16 57 -93 93 -125 59 -52 247 -148 247 -126 0 5 -21
30 -103 121 -51 57 -237 159 -237 130z"/>
</g>
</svg>
