<?xml version="1.0" standalone="no"?>
<!DOCTYPE svg PUBLIC "-//W3C//DTD SVG 20010904//EN"
 "http://www.w3.org/TR/2001/REC-SVG-20010904/DTD/svg10.dtd">
<svg version="1.0" xmlns="http://www.w3.org/2000/svg"
 width="1024.000000pt" height="1024.000000pt" viewBox="0 0 1024.000000 1024.000000"
 preserveAspectRatio="xMidYMid meet">
<metadata>
Created by potrace 1.16, written by Peter Selinger 2001-2019
</metadata>
<g transform="translate(0.000000,1024.000000) scale(0.100000,-0.100000)"
fill="#000000" stroke="none">
<path d="M4765 10053 c-907 -50 -1858 -406 -2628 -985 -452 -340 -811 -717
-1139 -1198 -424 -622 -700 -1353 -798 -2116 -42 -328 -48 -802 -14 -1144 67
-683 280 -1349 620 -1942 380 -664 913 -1235 1548 -1662 198 -133 359 -225
597 -340 540 -262 1070 -411 1679 -472 244 -24 731 -24 965 0 826 85 1593 361
2280 819 648 433 1229 1073 1595 1758 315 589 496 1189 572 1889 16 151 16
697 0 865 -65 666 -231 1249 -518 1815 -493 974 -1267 1738 -2249 2220 -571
280 -1161 444 -1764 490 -122 9 -598 11 -746 3z m590 -63 c714 -39 1345 -211
1990 -544 388 -201 672 -395 994 -682 954 -849 1538 -2034 1632 -3313 17 -235
7 -706 -21 -919 -48 -383 -140 -760 -267 -1102 -170 -458 -383 -849 -670
-1231 -660 -878 -1571 -1497 -2633 -1790 -775 -213 -1680 -222 -2455 -24 -991
254 -1865 795 -2521 1561 -463 541 -785 1144 -990 1854 -192 668 -229 1495
-98 2210 94 511 298 1068 557 1520 415 724 1008 1334 1712 1761 155 94 484
260 650 329 424 174 910 301 1320 345 322 34 513 40 800 25z"/>
<path d="M5396 9463 c-32 -357 -31 -329 -4 -336 32 -9 116 -9 121 1 7 11 52
531 47 535 -3 3 -37 7 -75 11 l-70 7 -19 -218z"/>
<path d="M4555 9658 c-77 -27 -125 -87 -125 -158 0 -85 43 -127 166 -161 105
-28 114 -34 114 -69 0 -56 -83 -65 -117 -13 -16 24 -20 25 -82 19 -36 -4 -69
-10 -73 -14 -14 -14 33 -90 74 -119 38 -25 49 -28 127 -28 69 0 95 4 132 23
92 45 128 145 83 223 -27 46 -71 74 -159 100 -79 23 -110 46 -99 73 8 22 42
20 99 -5 36 -16 58 -19 92 -14 54 8 62 24 34 69 -44 70 -174 106 -266 74z"/>
<path d="M5575 9615 c-7 -60 0 -74 35 -75 25 0 60 -30 60 -51 0 -28 -44 -69
-74 -69 -31 0 -48 -29 -44 -73 3 -32 4 -32 63 -35 145 -8 239 91 205 217 -20
76 -82 119 -196 137 l-41 6 -8 -57z"/>
<path d="M3727 9513 c-47 -13 -57 -19 -51 -32 4 -9 31 -92 61 -186 l55 -170
-23 -43 c-20 -38 -21 -47 -10 -82 6 -21 16 -42 21 -45 6 -4 32 6 58 20 59 32
102 94 102 146 0 33 -74 312 -102 382 -12 31 -25 32 -111 10z"/>
<path d="M6473 9446 c-20 -33 -86 -141 -146 -240 -120 -196 -118 -185 -32
-211 55 -17 53 -18 106 57 l16 23 71 -23 71 -23 3 -57 3 -57 62 -17 c43 -11
65 -13 69 -6 6 9 6 549 1 555 -1 1 -44 15 -94 31 l-93 30 -37 -62z"/>
<path d="M3455 9439 c-77 -26 -77 -25 -61 -63 7 -18 35 -103 61 -187 26 -85
56 -168 68 -186 32 -47 90 -76 152 -76 61 0 75 7 75 34 0 30 -27 89 -41 89
-35 0 -60 48 -116 222 -54 171 -58 178 -82 177 -14 0 -39 -5 -56 -10z"/>
<path d="M2630 9099 c-41 -23 -76 -42 -77 -43 -1 -1 21 -123 50 -271 39 -199
57 -271 67 -272 8 -2 35 8 60 21 l45 23 -2 60 -2 59 68 33 68 33 40 -42 39
-42 53 26 c28 15 54 33 58 42 3 9 -24 47 -73 101 -133 147 -296 313 -308 313
-6 0 -45 -19 -86 -41z"/>
<path d="M7433 9120 c-64 -13 -109 -38 -149 -82 -69 -77 -105 -198 -84 -280
15 -55 56 -115 92 -134 28 -14 29 -14 49 21 28 48 34 44 9 -5 l-21 -40 28 -11
c16 -6 51 -13 80 -16 60 -7 121 18 167 66 l28 30 -61 30 c-67 35 -93 38 -111
16 -17 -21 -63 -19 -91 4 -65 53 16 248 116 281 23 8 40 24 59 60 24 44 25 49
9 54 -43 12 -81 13 -120 6z"/>
<path d="M7558 9056 c-20 -43 -21 -47 -5 -83 9 -21 19 -48 22 -61 4 -15 27
-33 65 -52 l59 -30 12 22 c15 28 5 106 -20 157 -21 39 -77 91 -100 91 -6 0
-21 -20 -33 -44z"/>
<path d="M4705 8999 c-430 -37 -935 -184 -1348 -391 -746 -373 -1359 -984
-1742 -1733 -342 -669 -477 -1402 -399 -2162 123 -1209 794 -2275 1844 -2932
150 -94 477 -255 660 -325 467 -177 991 -267 1475 -253 409 12 749 72 1125
197 591 196 1102 511 1535 945 317 316 561 652 740 1015 46 95 53 116 40 118
-27 6 -62 -35 -115 -136 -194 -362 -413 -657 -710 -952 -247 -247 -463 -415
-760 -593 -653 -390 -1475 -586 -2216 -527 -529 43 -1081 201 -1524 438 -980
523 -1682 1422 -1944 2489 -218 888 -121 1783 284 2608 197 404 438 734 767
1056 381 372 794 641 1283 834 786 310 1696 348 2508 104 1402 -422 2448
-1615 2691 -3069 37 -219 46 -349 46 -640 -1 -240 -5 -311 -24 -450 -35 -253
-36 -283 -16 -300 24 -20 29 -7 54 143 34 212 41 290 47 507 39 1315 -578
2550 -1658 3317 -547 389 -1222 641 -1853 693 -149 12 -645 11 -790 -1z"/>
<path d="M2050 8525 c0 -9 10 -19 23 -24 12 -5 31 -18 41 -30 19 -20 19 -22 0
-63 -10 -24 -29 -60 -42 -82 -13 -21 -32 -57 -42 -80 -17 -42 -73 -106 -91
-106 -5 0 -31 16 -59 36 -27 20 -50 33 -50 30 0 -15 83 -117 107 -133 22 -15
48 -18 145 -17 78 1 123 5 131 13 9 9 -9 12 -82 10 -81 -1 -96 1 -108 17 -7
10 -13 26 -13 36 0 22 37 100 73 152 15 21 27 44 27 51 0 7 16 30 35 51 34 37
36 38 68 25 48 -20 77 -25 77 -13 0 15 -116 92 -150 98 -16 4 -37 15 -46 25
-21 23 -44 25 -44 4z"/>
<path d="M8110 8483 c-47 -16 -160 -88 -160 -102 0 -20 17 -19 56 4 67 39 62
42 132 -80 60 -104 102 -193 102 -214 0 -28 -28 -34 -138 -26 -79 6 -95 5 -85
-6 9 -9 56 -14 152 -17 l139 -4 43 58 c51 69 85 137 94 187 9 48 0 47 -20 0
-37 -89 -49 -112 -56 -108 -4 3 -14 -7 -24 -21 -11 -17 -24 -24 -38 -22 -24 3
-85 79 -122 153 -14 28 -37 71 -52 96 -29 51 -26 74 11 89 27 10 44 30 24 30
-7 -1 -33 -8 -58 -17z"/>
<path d="M4914 8016 c-17 -13 -20 -32 -25 -238 -4 -123 -7 -240 -8 -260 l-1
-38 -421 -2 -422 -3 -21 -28 c-19 -25 -21 -45 -24 -167 l-3 -138 -109 -4 c-98
-3 -111 -6 -134 -27 l-26 -24 0 -332 c0 -183 -3 -346 -6 -362 -6 -28 -16 -33
-207 -108 -283 -110 -345 -139 -358 -169 -11 -22 5 -74 123 -423 74 -219 151
-442 171 -495 l35 -98 -86 0 c-48 0 -118 7 -157 15 -38 8 -85 15 -103 15 -18
0 -56 12 -85 26 -146 74 -223 81 -321 29 -37 -19 -72 -35 -80 -35 -18 0 -26
22 -26 71 0 55 -15 79 -48 79 -40 0 -48 -9 -86 -91 -19 -42 -46 -85 -59 -96
-14 -11 -71 -35 -127 -54 -79 -26 -108 -40 -131 -66 -34 -39 -36 -48 -44 -175
l-7 -96 -63 -37 c-87 -51 -164 -121 -186 -169 -23 -51 -23 -68 -1 -96 27 -34
77 -28 211 25 l119 48 38 -30 c79 -61 160 -77 246 -47 43 14 48 14 67 -3 12
-10 21 -29 21 -46 0 -61 34 -87 155 -118 114 -30 176 -22 235 32 25 23 35 28
39 18 8 -25 69 -79 89 -79 12 0 28 -13 40 -35 36 -59 101 -59 112 1 4 22 10
28 25 25 11 -2 50 -4 87 -5 66 -1 67 -1 61 -26 -3 -14 -15 -42 -25 -64 -20
-38 -20 -39 1 -93 12 -30 21 -69 21 -86 1 -18 7 -43 14 -56 11 -20 9 -34 -20
-113 -29 -80 -60 -135 -71 -124 -3 2 5 37 17 77 24 78 23 99 -4 249 l-13 75
-4 -80 c-2 -44 -4 -109 -4 -145 -1 -80 -10 -127 -36 -188 -28 -64 -63 -99
-134 -133 l-60 -28 80 6 c61 4 94 13 140 36 114 56 241 147 206 147 -7 0 -1
21 14 50 14 27 25 51 25 53 0 2 -42 -38 -94 -89 -51 -52 -99 -94 -105 -94 -7
0 -2 17 13 43 24 42 49 118 61 189 6 36 7 37 28 24 36 -23 127 -40 207 -40 93
1 151 25 212 87 36 37 88 67 88 50 0 -2 -59 -70 -132 -149 -111 -121 -138
-146 -172 -155 -53 -14 -77 -27 -194 -102 -87 -56 -93 -62 -67 -65 17 -2 38 4
54 17 58 47 104 72 175 96 77 26 159 35 123 14 -11 -6 -73 -31 -140 -55 -148
-54 -171 -72 -51 -40 207 56 359 142 494 282 l65 67 -70 -55 c-140 -110 -229
-158 -292 -158 -25 0 -25 1 13 28 58 42 161 159 202 229 21 34 53 72 72 85 85
57 102 137 49 220 -26 40 -30 53 -22 71 12 25 79 52 89 35 15 -23 56 -28 119
-12 63 16 65 16 110 -6 40 -19 62 -22 156 -22 66 0 109 -3 109 -9 0 -6 -14
-43 -30 -83 -33 -79 -65 -115 -170 -188 -76 -54 -109 -88 -173 -179 -83 -120
-179 -185 -365 -249 -104 -37 -116 -49 -23 -25 175 45 362 132 485 224 33 25
93 65 132 88 79 47 117 85 133 135 10 31 71 311 71 326 0 4 9 -8 20 -26 20
-33 71 -62 110 -62 18 0 20 -6 20 -59 0 -33 4 -62 10 -66 8 -5 16 17 34 98 7
32 8 32 168 -5 l88 -20 -79 -96 c-84 -103 -218 -238 -227 -229 -3 3 -1 14 5
25 6 12 11 30 11 42 0 19 -6 16 -51 -24 -45 -40 -69 -55 -69 -42 0 2 7 23 15
46 8 24 14 45 12 46 -2 2 -21 -21 -43 -50 -21 -30 -68 -89 -103 -131 -35 -43
-55 -72 -43 -66 11 6 24 15 27 21 3 5 13 6 21 3 10 -4 31 9 57 34 58 55 116
97 124 89 21 -21 -118 -117 -226 -157 -42 -15 -60 -26 -57 -36 4 -9 -4 -13
-29 -13 l-35 0 32 53 c41 68 62 91 124 138 52 38 86 92 99 154 5 22 -3 14 -27
-30 -41 -75 -170 -180 -233 -190 -66 -12 -135 -55 -230 -147 -49 -48 -93 -88
-97 -88 -5 0 -8 -5 -8 -11 0 -12 55 -6 184 22 49 11 91 17 94 14 3 -3 -1 -5
-9 -5 -8 -1 -27 -7 -44 -16 -29 -14 -29 -14 25 -9 65 5 163 37 274 89 78 36
103 62 31 32 -58 -24 -56 -19 5 15 87 47 93 63 11 29 -41 -16 -77 -30 -80 -30
-3 0 30 20 75 43 104 55 215 136 333 242 89 80 111 92 111 60 0 -29 93 -196
136 -244 25 -28 50 -51 54 -51 5 0 -11 29 -34 63 -24 35 -57 97 -74 138 -33
82 -51 156 -35 146 6 -4 14 -23 17 -42 8 -42 47 -147 53 -142 2 2 -3 36 -12
76 -27 128 -28 124 73 161 212 78 339 120 364 120 28 0 28 0 48 -87 7 -29 16
-53 20 -53 5 0 12 31 16 69 l6 70 41 6 c42 8 87 43 87 70 0 33 19 13 25 -27
16 -95 65 -300 80 -328 17 -33 57 -65 131 -104 27 -15 75 -46 105 -69 127 -97
293 -177 447 -217 116 -29 131 -24 29 10 -114 38 -254 111 -295 153 -17 18
-58 71 -89 117 -42 61 -77 98 -123 133 -146 107 -174 139 -219 255 l-21 52
118 -1 c104 -1 124 1 161 21 38 19 49 20 87 11 56 -14 110 -14 133 1 26 16 81
-1 92 -29 6 -16 0 -33 -22 -67 -41 -61 -46 -103 -20 -153 24 -48 100 -99 160
-109 30 -5 47 -16 70 -44 17 -21 56 -51 86 -66 48 -23 69 -27 138 -27 71 0
155 15 208 37 12 5 18 -5 27 -55 6 -34 25 -91 42 -127 17 -36 28 -67 25 -70
-12 -13 -91 58 -143 129 -31 43 -60 78 -65 79 -4 0 7 -28 25 -62 17 -35 31
-70 29 -80 -2 -19 198 -144 248 -154 17 -4 31 -10 31 -13 0 -4 17 -7 38 -6 20
0 57 -3 82 -7 43 -7 41 -5 -35 31 -56 27 -101 59 -152 107 -61 59 -74 78 -90
129 -25 84 -22 220 7 288 l22 49 -26 58 c-14 32 -26 61 -26 66 0 5 26 9 57 9
32 0 70 3 84 7 22 7 27 3 38 -27 21 -58 68 -56 111 5 13 19 30 30 45 30 15 0
36 14 58 41 l35 40 47 -33 c42 -30 54 -33 113 -32 82 0 184 29 223 62 22 18
29 33 29 60 1 28 7 42 26 55 23 17 28 17 78 3 30 -9 67 -16 84 -16 44 0 112
27 155 62 l39 30 116 -47 c134 -54 185 -60 214 -25 46 57 -7 140 -154 241 -51
34 -95 64 -97 65 -2 2 -5 48 -6 101 -3 153 -21 175 -179 234 -139 51 -149 58
-175 128 -26 72 -56 111 -84 111 -38 0 -50 -16 -58 -75 -4 -32 -12 -62 -18
-68 -8 -8 -32 0 -83 26 -50 26 -86 37 -114 37 -52 0 -166 -34 -221 -66 -26
-15 -58 -24 -85 -24 -24 -1 -70 -7 -103 -15 -33 -8 -108 -15 -168 -15 -97 0
-111 2 -145 24 -54 36 -83 40 -148 21 -33 -9 -60 -13 -66 -7 -5 5 56 198 147
467 85 252 155 470 155 485 0 15 -8 34 -17 43 -23 20 -155 77 -381 162 -143
55 -184 74 -187 90 -3 11 -6 174 -7 362 -4 419 10 386 -163 392 l-115 3 0 139
c0 131 -1 139 -24 166 l-24 28 -421 3 -421 3 0 227 c0 236 -8 295 -40 312 -11
6 -107 10 -232 10 -169 0 -218 -3 -234 -14z m356 -341 l0 -195 -120 0 -120 0
0 195 0 195 120 0 120 0 0 -195z m890 -440 l0 -95 -1005 0 -1005 0 0 95 0 95
1005 0 1005 0 0 -95z m270 -535 l0 -270 -52 21 c-29 11 -127 49 -218 84 -91
35 -289 111 -440 170 -151 58 -341 132 -422 162 l-148 56 -67 -26 c-83 -31
-363 -140 -828 -322 -192 -75 -357 -139 -366 -142 -14 -4 -17 14 -22 139 -9
179 -9 312 -1 361 l7 37 1278 0 1279 0 0 -270z m-1367 -117 c9 -176 9 -1636 1
-1736 -6 -71 -8 -76 -33 -82 -32 -8 -110 -66 -209 -157 l-77 -70 -8 53 c-9 61
-28 96 -61 109 -12 4 -77 6 -144 3 l-121 -6 -24 55 c-14 30 -31 89 -40 131
-18 90 -49 140 -112 179 -36 22 -45 34 -45 56 0 62 -41 67 -112 16 -57 -43
-69 -44 -166 -14 -52 16 -89 21 -125 17 -28 -2 -63 -1 -77 4 -14 4 -40 10 -59
12 -35 3 -35 3 -78 128 -72 205 -253 747 -253 757 0 5 100 48 223 95 122 47
337 131 477 186 713 278 859 334 905 351 28 10 66 25 85 34 19 8 38 15 41 16
3 0 9 -61 12 -137z m503 16 c176 -66 387 -147 469 -179 83 -32 309 -119 502
-194 439 -169 463 -180 463 -203 0 -10 -67 -214 -150 -454 -82 -240 -150 -441
-150 -447 0 -5 -7 -13 -16 -16 -35 -13 -71 -4 -118 29 -27 19 -57 35 -67 35
-22 0 -49 -37 -49 -67 0 -16 -11 -28 -40 -43 -53 -27 -84 -78 -110 -180 -12
-47 -34 -106 -48 -132 -25 -44 -30 -48 -67 -49 -99 -3 -153 4 -204 27 -63 28
-74 29 -91 9 -10 -13 -10 -23 5 -54 12 -28 15 -50 10 -79 -6 -35 -14 -46 -61
-78 -44 -31 -66 -39 -114 -42 -81 -6 -125 17 -251 134 -72 66 -124 105 -176
131 l-73 36 0 841 c0 718 5 1096 16 1096 1 0 145 -54 320 -121z m-2972 -1474
c23 -35 65 -32 140 10 92 51 154 47 289 -21 44 -22 83 -34 110 -34 23 0 60 -5
82 -11 22 -6 90 -13 150 -17 l110 -7 -39 -30 c-39 -30 -42 -30 -190 -36 -122
-4 -161 -9 -206 -27 -82 -32 -125 -72 -150 -140 -42 -112 -53 -132 -66 -121
-16 14 -37 2 -30 -17 4 -10 -2 -14 -18 -14 -13 0 -37 -7 -52 -15 -16 -8 -39
-15 -52 -15 -12 0 -40 -9 -61 -19 -29 -15 -41 -17 -50 -8 -8 8 -11 -2 -11 -41
0 -61 -20 -84 -85 -101 -62 -16 -104 -13 -150 8 -67 30 -78 50 -73 127 4 62 7
69 41 100 20 19 43 49 51 67 l14 32 1 -28 c1 -36 21 -31 39 9 36 81 33 79 102
82 36 2 68 8 72 15 5 8 11 6 22 -8 14 -19 15 -19 55 9 23 16 41 32 41 35 0 14
127 91 158 97 18 4 35 11 39 17 10 17 -68 -3 -117 -29 -25 -14 -64 -42 -88
-64 -42 -39 -75 -50 -87 -30 -4 7 -14 5 -28 -5 -24 -17 -84 -20 -106 -6 -12 8
-12 13 3 36 9 14 36 44 58 66 22 21 34 39 27 39 -17 0 -180 -165 -208 -210
-11 -19 -21 -44 -21 -56 0 -11 -12 -31 -26 -45 -33 -30 -64 -91 -64 -123 0
-13 -7 -31 -15 -39 -14 -14 -266 -117 -286 -117 -18 0 -21 28 -6 57 21 39 71
84 142 128 111 69 115 76 115 177 0 140 20 171 135 208 144 47 185 77 216 159
32 87 43 94 50 32 4 -28 14 -62 23 -76z m5526 49 c28 -82 63 -110 198 -155 74
-24 105 -40 130 -66 32 -34 32 -35 32 -137 0 -120 -3 -115 125 -200 47 -32
100 -76 116 -99 58 -80 32 -89 -108 -36 -140 53 -183 76 -183 97 0 43 -24 93
-60 130 -25 25 -40 49 -40 64 0 14 -13 43 -30 66 -42 58 -173 192 -188 192
-19 0 -14 -18 8 -30 11 -6 34 -29 50 -52 23 -31 27 -44 19 -54 -14 -17 -69
-18 -103 -3 -19 9 -29 9 -39 1 -10 -9 -26 -1 -68 34 -64 53 -162 104 -198 104
-19 0 -11 -7 32 -24 32 -13 83 -44 113 -67 121 -94 134 -100 134 -61 1 15 3
14 16 -3 12 -17 26 -20 80 -19 l66 1 25 -59 c26 -58 49 -79 37 -33 -9 37 10
30 29 -10 9 -20 24 -38 32 -41 31 -12 56 -71 57 -135 1 -56 -2 -65 -26 -85
-51 -45 -127 -54 -211 -26 -44 15 -53 23 -75 66 -31 61 -63 85 -126 97 -27 5
-52 16 -57 24 -4 9 -12 13 -18 10 -5 -4 -9 -1 -9 5 0 6 -5 8 -11 5 -6 -4 -8
-14 -5 -22 4 -9 1 -13 -6 -11 -7 3 -14 17 -16 32 -3 21 -7 26 -23 21 -13 -4
-19 -2 -19 8 0 27 -61 152 -88 180 -15 16 -54 43 -87 60 -57 29 -67 31 -215
37 -139 5 -159 8 -193 29 -20 12 -37 27 -37 32 0 5 35 9 78 9 42 0 108 7 147
15 38 8 89 15 112 15 28 0 69 13 129 42 62 30 104 43 144 46 52 4 65 0 122
-32 36 -20 76 -36 90 -36 38 0 68 39 75 98 3 28 9 49 14 47 4 -3 17 -35 29
-71z m-4426 -79 c26 -9 61 -12 100 -9 46 4 75 1 120 -15 33 -12 72 -21 88 -21
30 0 102 32 113 50 13 22 35 10 35 -20 0 -26 7 -33 50 -55 59 -30 83 -70 105
-176 9 -40 24 -92 35 -117 11 -24 20 -46 20 -48 0 -12 -82 33 -122 66 -57 48
-75 56 -169 69 -173 23 -278 -38 -313 -181 -6 -26 -10 -28 -59 -28 -121 0
-159 -14 -264 -92 -100 -75 -136 -120 -126 -159 3 -12 23 -38 45 -58 53 -52
38 -65 -52 -46 -62 14 -66 13 -82 -6 -10 -12 -18 -27 -18 -35 0 -7 -5 -16 -10
-19 -17 -11 -42 63 -34 99 7 29 8 29 13 8 3 -13 11 -24 16 -25 15 -3 19 55 4
63 -19 12 -13 67 12 107 32 52 7 32 -30 -24 -17 -25 -31 -58 -31 -72 0 -14 -9
-41 -20 -59 -17 -27 -23 -31 -39 -23 -22 12 -61 91 -61 123 1 19 4 17 21 -14
20 -39 39 -50 39 -23 0 9 -9 33 -20 55 -11 22 -20 46 -20 55 0 25 40 97 73
133 17 17 26 32 20 32 -24 0 -101 -100 -112 -145 -6 -25 -17 -45 -24 -45 -7 0
-26 -13 -42 -30 l-29 -30 27 0 c43 0 39 -14 -16 -54 -64 -48 -113 -55 -200
-31 -95 27 -117 40 -117 75 0 16 5 41 12 55 12 27 73 65 103 65 21 0 88 35
105 55 21 26 6 26 -29 1 -18 -14 -52 -27 -74 -31 -69 -11 -103 -24 -126 -51
-25 -28 -41 -24 -41 11 0 29 35 52 147 94 99 39 124 58 146 110 9 23 24 59 33
80 11 26 26 44 46 52 18 7 36 25 43 43 32 77 92 100 260 101 72 1 138 2 147 3
9 1 51 29 93 63 76 60 126 88 155 88 8 0 33 -6 54 -14z m2869 -15 c65 -36 80
-37 182 -4 70 22 85 24 122 14 35 -10 49 -9 87 5 26 10 56 15 70 11 14 -3 68
-39 122 -79 l96 -72 147 0 c183 0 224 -14 262 -91 18 -38 32 -51 57 -59 17 -5
32 -14 32 -20 0 -30 54 -143 78 -162 15 -13 67 -37 115 -55 94 -33 151 -75
141 -102 -7 -17 -44 -22 -44 -6 0 19 -61 48 -115 55 -32 4 -66 16 -86 30 -34
26 -51 26 -30 1 19 -22 93 -56 124 -56 14 0 39 -11 54 -24 l28 -24 -22 -24
c-23 -24 -31 -58 -14 -58 5 0 19 12 30 26 l21 27 0 -35 c0 -45 -12 -54 -97
-78 -113 -33 -166 -24 -233 41 -33 32 -34 34 -12 37 12 2 22 7 22 10 0 17 -33
52 -49 52 -12 0 -21 14 -30 51 -10 38 -26 65 -60 100 -56 58 -89 66 -38 9 43
-47 77 -110 77 -142 -1 -13 -7 -34 -15 -48 -8 -14 -14 -36 -15 -49 l0 -24 25
23 c23 22 25 22 25 4 0 -26 -34 -80 -59 -94 -26 -14 -43 13 -60 93 -12 54 -51
117 -72 117 -6 0 1 -19 15 -43 31 -53 52 -171 37 -209 -11 -29 -31 -38 -31
-14 0 8 -8 24 -18 36 -17 21 -21 22 -73 10 -29 -7 -65 -10 -79 -9 l-25 4 37
41 c69 76 66 110 -14 176 -107 88 -210 135 -293 136 -76 0 -74 -2 -109 76 -29
64 -41 78 -82 102 -41 24 -61 29 -140 32 -121 6 -187 -13 -253 -72 -45 -40
-104 -66 -118 -52 -3 3 4 21 16 41 11 20 32 77 46 127 31 109 46 133 99 160
47 24 56 34 56 66 0 12 2 22 5 22 3 0 29 -13 58 -30z m-2408 -300 c17 -6 52
-30 78 -52 72 -60 117 -71 287 -72 144 -1 144 -1 157 -26 7 -14 13 -53 13 -88
0 -55 3 -66 26 -87 27 -25 250 -127 374 -170 148 -53 246 -105 196 -105 -8 0
-66 14 -131 30 -64 17 -164 35 -223 41 -59 5 -112 11 -119 14 -7 2 -24 22 -37
44 -14 22 -35 45 -46 51 -19 10 -23 8 -33 -19 -10 -28 -14 -30 -85 -37 -97 -9
-162 0 -211 28 l-39 22 -72 -18 c-87 -23 -107 -13 -72 34 29 39 28 45 -5 21
-16 -11 -53 -29 -84 -41 -102 -37 -129 -99 -77 -177 14 -21 28 -48 32 -59 10
-31 -32 -85 -87 -113 -50 -25 -70 -22 -49 7 40 56 45 78 29 123 l-15 44 -1
-55 c-1 -51 -6 -62 -57 -132 -67 -93 -124 -134 -199 -143 -88 -11 -208 15
-230 49 -7 12 -17 44 -21 71 -3 28 -13 62 -20 77 -13 24 -12 33 2 65 23 53 43
141 44 188 0 47 4 53 47 83 18 13 42 37 54 53 l22 31 -49 -36 c-93 -69 -94
-71 -94 -121 l0 -47 -37 23 c-61 36 -93 70 -93 99 0 31 13 43 135 130 l89 64
87 6 c99 6 112 13 144 85 23 52 59 91 110 119 24 14 49 16 130 12 55 -2 114
-10 130 -16z m2593 1 c51 -27 86 -66 115 -132 23 -51 28 -57 63 -62 22 -4 65
-7 97 -7 54 0 62 -3 151 -65 101 -70 146 -115 146 -145 0 -19 -45 -61 -99 -93
l-31 -18 0 29 c0 49 -19 89 -49 102 -16 6 -41 25 -57 41 -15 16 -33 29 -38 29
-6 -1 17 -27 52 -59 57 -53 63 -63 67 -106 6 -59 32 -160 51 -197 13 -24 13
-31 0 -50 -8 -13 -18 -43 -21 -68 -12 -88 -14 -90 -63 -113 -36 -16 -68 -21
-137 -21 -112 -1 -149 15 -213 95 -94 116 -102 130 -103 178 -1 44 -1 45 -10
16 -12 -39 -4 -87 22 -120 30 -37 17 -42 -42 -15 -93 44 -112 98 -59 165 23
29 30 48 30 82 0 55 -30 86 -101 103 -27 7 -65 23 -84 36 -42 28 -45 21 -8
-18 42 -44 20 -55 -65 -33 -70 18 -70 18 -107 -4 -48 -28 -103 -35 -209 -26
-83 7 -85 7 -91 36 -4 16 -10 31 -14 33 -14 9 -51 -25 -71 -64 -23 -44 -42
-51 -159 -55 -62 -2 -104 -12 -225 -54 -153 -52 -176 -58 -176 -41 0 17 92 63
234 117 153 58 345 148 387 182 26 20 27 23 25 124 l-2 103 31 -15 c22 -12 62
-16 155 -16 150 0 200 14 280 80 62 51 100 62 213 64 59 1 87 -4 115 -18z
m-1513 -175 c28 -13 97 -65 155 -116 58 -50 124 -103 148 -117 23 -14 42 -26
42 -28 0 -2 -17 -9 -37 -16 -21 -6 -79 -29 -130 -51 l-92 -39 -42 21 c-23 12
-99 44 -168 70 -69 26 -155 61 -190 77 l-63 29 61 56 c150 139 214 162 316
114z m-740 -913 c-35 -56 -113 -122 -157 -133 -24 -6 -59 -15 -78 -21 -64 -17
-62 -10 14 52 76 60 194 129 223 129 13 0 13 -4 -2 -27z"/>
<path d="M2554 4754 c-32 -19 -66 -41 -74 -48 -8 -8 -31 -19 -50 -25 -23 -7
-54 -33 -87 -72 -69 -80 -69 -91 3 -70 23 6 45 5 79 -6 42 -14 48 -14 62 -1
14 14 7 17 -68 25 l-84 8 45 47 c44 45 47 46 125 53 120 10 196 31 223 61 32
37 27 50 -8 20 -32 -27 -81 -43 -140 -47 -74 -4 -75 0 -14 37 70 42 84 54 63
54 -8 0 -42 -16 -75 -36z"/>
<path d="M8010 4782 c0 -4 25 -23 55 -41 67 -41 71 -56 13 -48 -72 11 -116 27
-148 53 -33 28 -39 22 -14 -14 26 -37 70 -52 183 -62 60 -6 116 -12 123 -15 8
-3 30 -25 50 -48 l36 -43 -37 -1 c-20 0 -58 -5 -86 -10 -49 -10 -50 -10 -22
-21 19 -8 35 -8 54 -1 16 6 50 9 77 7 33 -2 51 1 53 9 6 15 -104 133 -124 133
-7 0 -55 25 -105 55 -90 55 -108 62 -108 47z"/>
<path d="M8856 4239 c-3 -8 -15 -50 -27 -94 -33 -126 -97 -319 -150 -454 -27
-68 -49 -125 -49 -128 0 -2 12 -3 28 -1 22 2 32 14 59 68 37 76 143 390 169
503 l18 78 -22 21 c-17 17 -22 19 -26 7z"/>
<path d="M2873 4033 c-40 -8 -73 -59 -73 -112 0 -60 29 -95 91 -111 84 -21
126 -40 158 -74 31 -32 33 -36 21 -70 -22 -67 -108 -124 -230 -151 -101 -22
-354 -31 -450 -16 -72 12 -160 48 -220 92 l-28 21 -28 -21 c-34 -25 -133 -61
-168 -61 -14 0 -28 -4 -31 -10 -9 -15 67 -12 165 7 l86 16 64 -25 c111 -44
171 -52 380 -52 146 1 214 5 271 18 176 39 259 154 259 357 0 107 -11 133 -68
157 -47 20 -142 43 -165 41 -7 -1 -22 -4 -34 -6z m149 -69 c36 -12 49 -22 57
-45 12 -34 26 -149 18 -149 -3 0 -28 15 -56 34 -28 19 -65 37 -83 41 -74 15
-96 26 -106 53 -5 15 -6 37 -1 50 16 44 69 49 171 16z"/>
<path d="M5835 3988 c2 -7 13 -44 25 -81 12 -38 20 -71 17 -74 -3 -3 -29 17
-58 43 l-52 49 7 -43 c9 -62 37 -110 93 -163 67 -64 181 -153 223 -174 l35
-18 -21 24 c-23 26 -94 134 -94 144 0 3 12 -2 28 -12 27 -17 27 -17 12 2 -8
11 -41 50 -72 88 -31 37 -75 104 -98 148 -37 72 -55 98 -45 67z"/>
<path d="M5910 3959 c22 -75 53 -120 111 -161 45 -32 72 -63 113 -127 30 -47
67 -98 83 -113 51 -49 320 -167 354 -156 19 6 -188 224 -261 274 -36 24 -92
53 -125 63 -85 25 -215 125 -244 186 -11 25 -21 49 -21 55 0 5 -4 10 -9 10 -6
0 -6 -12 -1 -31z m286 -255 c75 -32 171 -102 235 -173 35 -39 66 -76 67 -82 6
-14 -94 27 -177 74 -69 39 -95 64 -166 160 -31 42 -22 47 41 21z"/>
<path d="M5430 3963 c0 -6 9 -39 19 -72 34 -111 100 -192 241 -295 93 -69 111
-75 65 -25 -22 24 -69 81 -103 126 -34 45 -85 101 -113 125 -30 25 -63 66 -80
98 -15 30 -28 50 -29 43z"/>
<path d="M7515 3845 c5 -136 16 -184 54 -237 67 -93 181 -135 396 -145 174 -7
322 8 418 43 84 31 121 33 238 14 50 -8 93 -10 105 -5 14 6 5 10 -39 16 -64 9
-133 36 -160 64 -17 17 -20 16 -75 -18 -123 -75 -213 -93 -430 -84 -271 12
-396 58 -453 168 -10 21 -23 79 -30 130 -20 165 -29 185 -24 54z"/>
<path d="M6650 3919 c0 -6 44 -57 98 -113 92 -96 90 -100 -7 -11 -39 35 -42
36 -23 10 23 -33 111 -119 156 -153 36 -27 25 -28 -48 -2 -72 24 -154 71 -220
125 -102 82 -101 63 1 -27 145 -129 298 -209 488 -257 120 -30 145 -34 145
-23 0 15 -184 130 -245 153 -45 17 -70 38 -160 134 -112 120 -185 185 -185
164z"/>
<path d="M5009 2981 c-46 -46 -50 -77 -13 -120 32 -38 45 -91 37 -148 -5 -38
-9 -43 -32 -43 -15 0 -42 11 -60 24 -28 21 -37 23 -63 14 -41 -15 -64 -68 -47
-110 21 -51 82 -76 108 -44 6 8 37 15 69 18 95 7 162 73 162 160 0 53 -20 84
-86 129 -24 16 -44 36 -44 43 0 25 37 48 72 44 28 -2 35 -8 44 -37 14 -43 39
-59 54 -32 14 27 13 57 -5 91 -20 39 -43 50 -106 50 -46 0 -55 -4 -90 -39z"/>
<path d="M5197 2633 c-46 -43 -102 -94 -126 -113 l-42 -35 -10 -205 c-15 -336
-14 -335 -103 -328 -61 5 -196 57 -196 76 0 4 16 16 36 25 19 10 34 23 32 30
-3 6 -33 30 -69 51 -35 21 -93 61 -129 88 -36 27 -72 47 -80 46 -21 -4 -38
-72 -39 -151 -1 -81 24 -200 46 -219 13 -11 20 -7 48 26 l33 39 15 -29 c20
-38 101 -120 149 -150 21 -13 72 -38 114 -54 128 -51 153 -68 186 -121 17 -27
34 -49 37 -49 4 0 14 13 24 29 28 48 90 90 209 142 61 27 119 56 129 65 27 24
25 80 -2 94 -11 7 -29 20 -40 31 -16 16 -33 19 -98 19 -94 0 -104 7 -120 80
-17 77 -33 322 -29 445 l3 110 37 -2 c21 -1 52 -10 69 -18 27 -15 33 -15 54
-1 13 8 28 31 35 51 16 49 -11 99 -58 103 -28 3 -42 -6 -115 -75z"/>
<path d="M1856 2369 c-64 -55 -116 -104 -116 -107 1 -4 12 -20 25 -37 l24 -29
33 29 c18 16 52 47 75 69 24 22 44 38 47 35 2 -2 -22 -40 -55 -84 -32 -44 -59
-84 -59 -89 0 -6 10 -20 22 -33 l21 -23 104 55 103 56 -80 -77 c-44 -42 -80
-82 -80 -89 0 -6 11 -22 25 -35 l24 -23 38 33 c21 19 76 68 122 111 l84 77
-21 29 c-11 15 -30 37 -42 48 l-22 20 -80 -43 c-44 -24 -82 -41 -84 -39 -2 2
21 37 51 77 30 40 55 75 55 77 0 7 -83 93 -90 93 -4 0 -59 -45 -124 -101z"/>
<path d="M8316 2380 c-47 -42 -62 -89 -41 -129 13 -26 21 -31 52 -31 21 0 55
11 79 25 42 25 60 22 48 -9 -3 -9 -16 -16 -28 -16 -30 0 -74 -58 -55 -72 22
-14 79 -1 106 24 56 52 69 120 30 156 -30 29 -50 28 -114 -5 -29 -14 -55 -24
-58 -21 -11 10 7 38 24 38 22 0 65 45 56 59 -13 22 -64 11 -99 -19z"/>
<path d="M5638 2244 c-23 -20 -85 -64 -135 -97 -51 -33 -93 -64 -93 -67 0 -3
16 -14 35 -23 42 -20 43 -29 8 -57 -27 -21 -27 -22 -8 -33 11 -6 40 -30 65
-53 l46 -43 24 45 c14 24 27 44 30 44 3 0 14 -16 24 -35 11 -19 25 -35 33 -35
8 0 24 21 36 48 19 40 22 64 22 172 0 120 -10 170 -34 170 -5 0 -29 -16 -53
-36z"/>
<path d="M8095 2220 l-29 -30 22 -23 c17 -18 19 -26 10 -35 -10 -10 -7 -17 9
-34 18 -18 24 -19 38 -8 13 11 23 5 70 -39 66 -62 100 -67 139 -20 14 17 26
34 26 39 0 14 -44 42 -48 30 -6 -17 -22 -11 -67 27 -43 35 -44 38 -28 56 17
18 16 19 -7 37 -18 13 -28 16 -37 8 -9 -7 -20 -6 -38 6 -31 20 -26 21 -60 -14z"/>
<path d="M2163 2073 c-33 -13 12 -63 57 -63 23 0 38 -26 23 -41 -7 -7 -23 -2
-48 15 -52 36 -108 36 -131 0 -27 -40 -22 -83 12 -110 16 -13 45 -40 65 -60
20 -20 41 -35 46 -33 6 2 38 34 72 72 50 56 61 74 61 103 0 76 -91 144 -157
117z"/>
<path d="M8007 2040 c-14 -11 -29 -29 -32 -40 -4 -11 -10 -18 -14 -16 -4 3
-20 -8 -36 -24 l-28 -29 41 -48 c22 -26 61 -68 86 -92 l46 -45 30 29 30 28
-55 63 c-57 64 -67 90 -38 101 12 5 33 -11 74 -55 32 -34 62 -62 67 -62 4 0
20 13 35 28 l27 28 -73 77 c-80 85 -110 96 -160 57z"/>
<path d="M2328 1824 c-40 -47 -74 -91 -76 -99 -2 -7 11 -23 27 -35 l31 -21 54
58 55 58 29 -17 c30 -16 31 -15 57 12 31 33 27 46 -16 55 -17 4 -28 10 -25 13
7 6 -43 62 -55 62 -4 0 -41 -39 -81 -86z"/>
<path d="M7812 1852 c-35 -11 -89 -58 -99 -89 -6 -16 -7 -38 -2 -51 l9 -23 29
20 c16 12 31 31 33 44 2 14 11 23 26 25 32 5 27 -15 -13 -59 -45 -50 -48 -97
-9 -128 15 -12 39 -21 54 -21 27 0 80 39 80 60 0 5 5 10 12 10 6 0 26 12 45
26 l33 25 -56 67 c-49 59 -99 104 -114 101 -3 -1 -15 -4 -28 -7z"/>
<path d="M2512 1721 c-27 -32 -62 -76 -78 -96 l-28 -38 33 -28 34 -28 73 92
c41 51 74 97 74 104 0 6 -13 21 -29 33 l-30 21 -49 -60z"/>
<path d="M7522 1714 l-32 -26 20 -25 c19 -24 19 -26 3 -38 -17 -12 -17 -14 1
-34 12 -13 26 -19 37 -16 13 4 26 -7 49 -40 64 -93 95 -102 152 -47 26 24 27
27 11 44 -9 11 -24 16 -34 13 -12 -4 -28 8 -53 41 -34 45 -35 48 -19 66 16 18
16 20 -5 40 -17 17 -24 19 -35 9 -12 -9 -19 -7 -35 14 -11 14 -21 25 -23 25
-2 0 -19 -12 -37 -26z"/>
<path d="M2601 1589 c-39 -55 -71 -102 -71 -104 0 -6 71 -48 74 -44 1 2 22 32
45 66 42 61 64 79 82 67 18 -11 8 -41 -37 -107 -26 -37 -45 -69 -43 -71 56
-42 66 -46 81 -28 36 42 97 139 98 157 6 56 -21 95 -64 95 -14 0 -26 7 -28 18
-3 9 -19 25 -36 34 l-30 18 -71 -101z"/>
<path d="M7366 1637 l-29 -23 53 -85 c29 -46 70 -110 92 -142 l39 -57 30 15
c16 9 32 22 35 29 6 15 -166 286 -181 286 -5 0 -23 -10 -39 -23z"/>
<path d="M7287 1482 c-15 -9 -26 -19 -25 -22 2 -3 21 -40 43 -83 32 -61 37
-79 27 -89 -19 -19 -40 -1 -85 73 -21 35 -40 66 -42 68 -2 2 -20 -7 -39 -19
l-36 -22 27 -46 c55 -96 74 -122 98 -138 30 -20 67 -12 100 20 13 13 34 26 47
29 12 3 31 12 42 20 17 13 15 19 -44 120 -35 59 -68 107 -74 107 -6 0 -23 -8
-39 -18z"/>
<path d="M2888 1475 c-61 -34 -91 -134 -55 -188 25 -39 92 -70 132 -63 51 10
61 30 28 52 -16 10 -41 18 -58 19 -30 0 -43 20 -31 50 4 11 18 6 62 -20 32
-19 63 -35 70 -35 15 0 34 52 34 92 0 18 -12 41 -33 64 -26 29 -42 37 -77 40
-29 3 -55 -1 -72 -11z"/>
<path d="M3249 1351 c-45 -46 -41 -89 16 -150 59 -63 59 -102 -1 -87 -17 5
-24 13 -24 31 0 18 -10 29 -39 44 -44 23 -51 20 -51 -21 0 -69 73 -130 157
-132 39 -1 49 4 75 33 39 44 34 85 -19 148 -58 68 -59 71 -45 85 16 16 42 1
59 -32 17 -33 62 -57 75 -38 12 18 1 67 -20 91 -23 26 -90 57 -125 57 -18 0
-39 -11 -58 -29z"/>
<path d="M7004 1325 c-68 -31 -95 -104 -53 -146 19 -19 28 -20 85 -14 53 5 64
4 64 -8 0 -18 -21 -27 -48 -20 -11 2 -34 -3 -52 -12 -31 -16 -31 -17 -14 -36
34 -38 140 -15 181 40 19 25 15 75 -8 100 -19 20 -29 22 -85 19 -63 -3 -98 14
-39 20 37 3 85 22 85 32 0 29 -72 45 -116 25z"/>
<path d="M6752 1195 c-16 -13 -32 -22 -35 -18 -11 11 -67 -19 -66 -36 0 -9 19
-61 43 -116 44 -106 45 -106 102 -85 l24 9 -21 53 c-38 95 -44 117 -30 131 20
20 41 -4 70 -75 14 -37 29 -69 33 -73 7 -8 78 21 78 32 0 19 -65 165 -82 183
-26 28 -79 26 -116 -5z"/>
<path d="M3506 1202 c-20 -33 -66 -169 -66 -197 0 -42 38 -75 86 -75 19 0 34
-4 34 -8 0 -10 44 -32 63 -32 10 0 98 209 97 232 0 11 -71 31 -80 22 -4 -5
-20 -41 -35 -81 -29 -76 -45 -92 -66 -66 -11 12 -8 29 15 93 15 44 25 83 22
88 -8 14 -65 32 -70 24z"/>
<path d="M3775 1088 c-36 -96 -73 -223 -68 -229 14 -12 72 -28 76 -21 3 4 12
32 22 62 23 71 31 80 70 80 28 0 35 5 44 31 17 49 15 52 -29 46 -22 -3 -38 -1
-35 4 3 4 -11 15 -31 24 -44 18 -43 18 -49 3z"/>
<path d="M6464 1090 c-36 -14 -74 -68 -74 -106 0 -42 31 -107 62 -128 33 -23
99 -20 139 7 47 31 66 85 50 139 -19 63 -60 98 -113 97 -24 0 -52 -4 -64 -9z"/>
<path d="M6142 1073 c-18 -9 -43 -30 -55 -47 -47 -66 -14 -214 57 -257 83 -51
201 2 221 99 6 27 4 32 -13 32 -36 0 -82 -22 -82 -39 0 -22 -19 -41 -40 -41
-44 0 -91 119 -67 169 15 31 55 40 73 16 10 -14 18 -15 53 -5 23 6 41 15 41
21 0 6 -13 24 -29 40 -25 24 -38 29 -78 29 -26 0 -63 -8 -81 -17z"/>
<path d="M3960 1003 c1 -69 19 -226 27 -234 4 -4 26 -11 49 -14 l41 -7 63 97
c75 116 80 130 48 138 -48 13 -56 8 -97 -65 l-41 -73 0 87 0 87 -37 10 c-53
15 -53 15 -53 -26z"/>
<path d="M5720 983 c-51 -26 -66 -64 -47 -114 14 -35 14 -41 -4 -75 -46 -91
44 -165 148 -122 15 6 51 12 80 12 28 1 54 4 58 8 4 4 -6 24 -23 44 -30 36
-30 37 -16 76 18 51 19 48 -15 48 -18 0 -34 -8 -43 -22 -13 -20 -17 -21 -32
-9 -15 12 -14 16 9 39 31 31 32 63 3 96 -31 35 -74 41 -118 19z"/>
<path d="M4291 937 c-40 -20 -64 -62 -69 -120 -4 -46 -1 -57 23 -85 48 -57
140 -64 187 -15 19 20 20 26 8 34 -8 5 -40 8 -70 7 -50 -3 -55 -1 -58 20 -4
26 8 27 88 12 60 -11 70 -6 70 45 0 47 -33 92 -77 104 -49 14 -72 14 -102 -2z"/>
<path d="M4520 902 c0 -10 11 -70 25 -136 27 -128 25 -146 -21 -146 -20 0 -24
-5 -24 -29 0 -25 5 -30 35 -35 49 -9 86 13 117 71 43 78 117 251 110 257 -3 3
-22 6 -42 6 -36 0 -38 -2 -59 -56 -11 -31 -21 -62 -21 -70 0 -9 -4 -13 -9 -10
-4 3 -11 37 -15 76 -8 76 -2 70 -78 85 -12 2 -18 -3 -18 -13z"/>
<path d="M4851 867 c-44 -22 -66 -63 -66 -122 0 -66 25 -104 80 -123 77 -25
144 11 166 89 30 112 -81 207 -180 156z"/>
<path d="M5224 870 c-12 -5 -25 -13 -29 -19 -9 -16 -25 -13 -25 4 0 11 -11 15
-40 15 l-40 0 0 -130 0 -130 45 0 45 0 0 74 c0 79 13 106 51 106 16 0 19 7 19
45 0 25 -1 45 -2 44 -2 0 -13 -4 -24 -9z"/>
<path d="M5330 867 c-32 -16 -47 -58 -34 -94 7 -22 21 -32 64 -46 30 -10 59
-22 64 -27 15 -15 -24 -25 -45 -12 -27 17 -89 15 -89 -2 0 -26 35 -57 72 -63
86 -13 148 20 148 81 0 44 -19 62 -86 82 -30 8 -54 19 -54 24 0 13 26 19 41 9
20 -12 89 -11 89 1 0 6 -11 22 -25 35 -19 20 -34 25 -72 25 -26 0 -59 -6 -73
-13z"/>
</g>
</svg>
